<svg width="108" height="91" viewBox="0 0 108 91" fill="none" xmlns="http://www.w3.org/2000/svg">
<path d="M100.745 13.924L61.7387 0L33.8093 2.16758L13.5253 13.4129L7.5571 19.3891L2.40645 27.3254L0 36.1609V43.3708L15.7513 62.3795L36.4499 62.0105L53.3372 78.7247L58.3382 74.551L58.2768 76.7647L76.968 91.0077H87.2924L80.8829 77.6371L78.1233 74.4472L87.4613 69.6316L98.3306 60.3041L107.127 44.6852L100.745 13.9317V13.924ZM35.3944 7.45587L61.0133 5.46892L96.0892 17.9902L97.421 24.416H77.4286L70.8272 31.6221H49.6988L45.8454 25.177L50.689 19.5697H63.6731C64.529 20.9917 66.0795 21.9448 67.8565 21.9448C70.5547 21.9448 72.7424 19.7542 72.7424 17.0524C72.7424 14.3506 70.5547 12.16 67.8565 12.16C66.2331 12.16 64.7976 12.9555 63.911 14.1777H48.2288L42.9362 20.3038L41.0824 17.2061H17.8085L35.3982 7.45587H35.3944ZM94.1011 56.8183L84.433 65.1197L69.5645 72.7908L76.3386 80.6194L78.699 85.5465L63.7345 74.1436L64.0415 62.7676L53.6404 71.4456L38.6184 56.5762L18.2384 56.9413L17.298 55.8037L18.9446 50.7883H19.3437C20.2226 52.0758 21.7003 52.9213 23.3775 52.9213C26.0756 52.9213 28.2633 50.7306 28.2633 48.0288C28.2633 45.3271 26.0756 43.1364 23.3775 43.1364C21.6504 43.1364 20.1344 44.0357 19.267 45.3924H15.0451L13.2374 50.8997L5.38477 41.4223V37.0141H31.6984L39.9502 49.3163H42.4602L48.7853 59.6623H53.5368C54.4119 60.9844 55.9087 61.8568 57.6128 61.8568C60.311 61.8568 62.4986 59.6661 62.4986 56.9644C62.4986 54.2626 60.311 52.0719 57.6128 52.0719C55.9087 52.0719 54.4119 52.9443 53.5368 54.2664H51.802L48.7738 49.3163H67.9448L72.1628 56.1112H94.5002L94.1011 56.8183ZM97.5399 50.7153H75.1565L70.9385 43.9204H42.821L34.5692 31.6183H6.8202L7.38055 29.5544L11.7636 22.8019L11.967 22.5982H38.0235L46.6437 37.0141H73.1953L79.7967 29.8081H98.5417L100.177 37.6829H87.5342C86.6438 36.4915 85.2275 35.719 83.6271 35.719C80.9289 35.719 78.7412 37.9096 78.7412 40.6114C78.7412 43.3132 80.9289 45.5038 83.6271 45.5038C85.4271 45.5038 86.993 44.5277 87.8412 43.0788H101.294L101.443 43.7936L97.5399 50.7191V50.7153Z" fill="url(#paint0)"/>
<defs>
<linearGradient id="paint0" x1="0" y1="45.5" x2="108" y2="45.5" gradientUnits="userSpaceOnUse">
<stop stop-color="#506FFB"/>
<stop offset="1" stop-color="#8D2AF3"/>
</linearGradient>
</defs>
</svg>
