<svg width="544" height="438" viewBox="0 0 544 438" fill="none" xmlns="http://www.w3.org/2000/svg">
    <path d="M479.534 106.822L311.68 47L191.491 56.3127L104.203 104.626L78.5204 130.302L56.3557 164.399L46 202.36V233.336L113.782 315.003L202.854 313.418L275.526 385.228L297.046 367.296L296.782 376.807L377.216 438H421.644L394.062 380.555L382.187 366.851L422.371 346.161L469.145 306.087L507 238.983L479.534 106.855V106.822ZM198.312 79.0329L308.558 70.4963L459.499 124.292L465.231 151.9H379.198L350.79 182.859H259.868L243.286 155.169L264.129 131.078H320.004C323.687 137.188 330.359 141.283 338.006 141.283C349.617 141.283 359.031 131.871 359.031 120.263C359.031 108.655 349.617 99.2434 338.006 99.2434C331.02 99.2434 324.843 102.661 321.028 107.912H253.542L230.767 134.232L222.789 120.923H122.635L198.329 79.0329H198.312ZM450.944 291.111L409.34 326.776L345.356 359.734L374.507 393.369L384.665 414.537L320.268 365.546L321.589 316.671L276.83 353.955L212.186 290.071L124.485 291.639L120.438 286.752L127.524 265.204H129.242C133.024 270.735 139.383 274.368 146.6 274.368C158.211 274.368 167.625 264.956 167.625 253.348C167.625 241.74 158.211 232.329 146.6 232.329C139.168 232.329 132.644 236.192 128.911 242.021H110.743L102.964 265.683L69.1722 224.964V206.025H182.407L217.917 258.88H228.719L255.937 303.33H276.384C280.15 309.01 286.591 312.758 293.925 312.758C305.535 312.758 314.95 303.346 314.95 291.738C314.95 280.13 305.535 270.719 293.925 270.719C286.591 270.719 280.15 274.467 276.384 280.147H268.919L255.888 258.88H338.386L356.538 288.073H452.662L450.944 291.111ZM465.743 264.89H369.42L351.269 235.697H230.271L194.761 182.843H75.3493L77.7606 173.976L96.6221 144.965L97.4975 144.09H209.626L246.721 206.025H360.98L389.388 175.066H470.053L477.089 208.898H422.685C418.853 203.78 412.759 200.461 405.871 200.461C394.26 200.461 384.846 209.873 384.846 221.48C384.846 233.088 394.26 242.5 405.871 242.5C413.617 242.5 420.356 238.306 424.006 232.081H481.895L482.54 235.152L465.743 264.907V264.89Z" fill="url(#paint00_linear_190_142)"/>
    <path d="M436.274 87.8554L285.169 34L176.974 42.3838L98.3954 85.8784L75.2754 108.993L55.3223 139.689L46 173.863V201.75L107.019 275.272L187.203 273.845L252.623 338.492L271.996 322.349L271.758 330.911L344.166 386H384.161L359.332 334.285L348.641 321.947L384.816 303.322L426.922 267.245L461 206.834L436.274 87.8851V87.8554ZM183.114 62.8378L282.359 55.1527L418.239 103.582L423.398 128.436H345.95L320.377 156.308H238.528L223.6 131.38L242.364 109.692H292.663C295.978 115.192 301.985 118.878 308.869 118.878C319.321 118.878 327.796 110.405 327.796 99.9554C327.796 89.5054 319.321 81.0324 308.869 81.0324C302.58 81.0324 297.019 84.1095 293.585 88.8365H232.833L212.33 112.531L205.149 100.55H114.988L183.129 62.8378H183.114ZM410.537 253.762L373.085 285.87L315.485 315.54L341.728 345.82L350.872 364.877L292.901 320.773L294.09 276.773L253.797 310.338L195.603 252.826L116.653 254.238L113.011 249.838L119.389 230.439H120.936C124.34 235.419 130.065 238.689 136.562 238.689C147.014 238.689 155.489 230.216 155.489 219.766C155.489 209.316 147.014 200.843 136.562 200.843C129.871 200.843 123.998 204.322 120.638 209.569H104.283L97.2803 230.87L66.86 194.214V177.164H168.796L200.763 224.746H210.486L234.989 264.762H253.396C256.786 269.876 262.584 273.25 269.186 273.25C279.638 273.25 288.113 264.777 288.113 254.327C288.113 243.877 279.638 235.404 269.186 235.404C262.584 235.404 256.786 238.778 253.396 243.892H246.676L234.945 224.746H309.211L325.551 251.027H412.084L410.537 253.762ZM423.859 230.157H337.148L320.808 203.876H211.884L179.917 156.293H72.4207L74.5915 148.311L91.5709 122.193L92.3589 121.405H193.299L226.693 177.164H329.551L355.124 149.292H427.74L434.074 179.75H385.098C381.649 175.142 376.162 172.154 369.962 172.154C359.51 172.154 351.035 180.627 351.035 191.077C351.035 201.527 359.51 210 369.962 210C376.935 210 383.002 206.224 386.288 200.62H438.4L438.98 203.385L423.859 230.172V230.157Z" fill="url(#paint0_linear_190_142)"/>
    <circle cx="406" cy="27" r="13" fill="url(#paint1_linear_190_142)"/>
    <circle cx="284.5" cy="7.5" r="7.5" fill="url(#paint2_linear_190_142)"/>
    <circle cx="434" cy="356" r="7" fill="url(#paint3_linear_190_142)"/>
    <circle cx="154" cy="342" r="7" fill="url(#paint4_linear_190_142)"/>
    <circle cx="21" cy="194" r="7" fill="url(#paint5_linear_190_142)"/>
    <path fill-rule="evenodd" clip-rule="evenodd" d="M70.1918 316L65.1296 321.062L73.084 329.017L65 337.101L70.0622 342.163L78.1462 334.079L85.9408 341.873L91.003 336.811L83.2084 329.017L90.8734 321.352L85.8112 316.289L78.1462 323.954L70.1918 316Z" fill="url(#paint6_linear_190_142)"/>
    <path fill-rule="evenodd" clip-rule="evenodd" d="M514.195 100L511.08 103.115L515.974 108.009L511 112.984L514.115 116.098L519.089 111.124L523.885 115.92L527 112.805L522.204 108.009L526.92 103.293L523.805 100.178L519.089 104.894L514.195 100Z" fill="url(#paint7_linear_190_142)"/>
    <path fill-rule="evenodd" clip-rule="evenodd" d="M450.782 284L446.119 288.663L453.446 295.99L446 303.436L450.663 308.098L458.109 300.652L465.288 307.832L469.951 303.169L462.772 295.99L469.832 288.929L465.169 284.267L458.109 291.327L450.782 284Z" fill="url(#paint8_linear_190_142)"/>
    <circle cx="27.5" cy="54.5" r="27.5" fill="url(#paint9_linear_190_142)"/>
    <path d="M46 55C46 52.6362 45.5344 50.2956 44.6298 48.1117C43.7252 45.9278 42.3994 43.9435 40.7279 42.2721C39.0565 40.6006 37.0722 39.2748 34.8883 38.3702C32.7044 37.4656 30.3638 37 28 37C23.2261 37 18.6477 38.8964 15.2721 42.2721C11.8964 45.6477 10 50.2261 10 55C10 59.7739 11.8964 64.3523 15.2721 67.7279C18.6477 71.1036 23.2261 73 28 73C32.7739 73 37.3523 71.1036 40.7279 67.7279C44.1036 64.3523 46 59.7739 46 55ZM42.274 53.2H37C36.7031 48.9667 35.2527 44.8954 32.806 41.428C35.3196 42.3207 37.5359 43.8941 39.2077 45.9727C40.8794 48.0513 41.941 50.5534 42.274 53.2ZM22.744 56.8H33.4C32.9393 61.247 31.0439 65.4234 28 68.698C24.9581 65.4371 23.1061 61.2447 22.744 56.8ZM22.744 53.2C23.1632 48.7753 25.0077 44.6063 28 41.32C31.0685 44.571 32.9682 48.7505 33.4 53.2H22.744ZM23.392 41.374C20.9324 44.8606 19.4586 48.9461 19.126 53.2H13.726C14.066 50.5207 15.1527 47.991 16.8619 45.8999C18.5711 43.8087 20.8339 42.2404 23.392 41.374ZM13.726 56.8H19.126C19.4224 61.0503 20.8862 65.1363 23.356 68.608C20.8072 67.7374 18.5536 66.1693 16.8513 64.082C15.149 61.9947 14.0662 59.4719 13.726 56.8ZM32.716 68.59C35.1791 65.1172 36.6592 61.0439 37 56.8H42.31C41.9696 59.4644 40.8907 61.9806 39.1954 64.064C37.5 66.1475 35.2556 67.7152 32.716 68.59Z" fill="url(#paint10_linear_190_142)"/>
    <path d="M149 219.5C149 217.858 148.677 216.233 148.048 214.716C147.42 213.2 146.5 211.822 145.339 210.661C144.178 209.5 142.8 208.58 141.284 207.952C139.767 207.323 138.142 207 136.5 207C133.185 207 130.005 208.317 127.661 210.661C125.317 213.005 124 216.185 124 219.5C124 222.815 125.317 225.995 127.661 228.339C130.005 230.683 133.185 232 136.5 232C139.815 232 142.995 230.683 145.339 228.339C147.683 225.995 149 222.815 149 219.5ZM146.413 218.25H142.75C142.544 215.31 141.537 212.483 139.837 210.075C141.583 210.695 143.122 211.788 144.283 213.231C145.444 214.675 146.181 216.412 146.413 218.25ZM132.85 220.75H140.25C139.93 223.838 138.614 226.738 136.5 229.013C134.388 226.748 133.101 223.837 132.85 220.75ZM132.85 218.25C133.141 215.177 134.422 212.282 136.5 210C138.631 212.258 139.95 215.16 140.25 218.25H132.85ZM133.3 210.037C131.592 212.459 130.569 215.296 130.338 218.25H126.588C126.824 216.389 127.578 214.633 128.765 213.18C129.952 211.728 131.524 210.639 133.3 210.037ZM126.588 220.75H130.338C130.543 223.702 131.56 226.539 133.275 228.95C131.505 228.345 129.94 227.256 128.758 225.807C127.576 224.357 126.824 222.605 126.588 220.75ZM139.775 228.938C141.486 226.526 142.513 223.697 142.75 220.75H146.438C146.201 222.6 145.452 224.348 144.275 225.794C143.097 227.241 141.539 228.33 139.775 228.938Z" fill="url(#paint11_linear_190_142)"/>
    <circle cx="202" cy="397" r="24" fill="url(#paint12_linear_190_142)"/>
    <path d="M215 394.126V404.841C215 405.435 214.781 405.943 214.344 406.366C213.907 406.789 213.382 407 212.768 407H192.232C191.618 407 191.093 406.789 190.656 406.366C190.219 405.943 190 405.435 190 404.841V394.126C190.409 394.567 190.879 394.959 191.409 395.3C194.776 397.513 197.087 399.065 198.343 399.956C198.873 400.334 199.303 400.628 199.633 400.84C199.963 401.051 200.403 401.267 200.951 401.488C201.5 401.708 202.012 401.818 202.486 401.818H202.514C202.988 401.818 203.5 401.708 204.049 401.488C204.597 401.267 205.037 401.051 205.367 400.84C205.697 400.628 206.127 400.334 206.657 399.956C208.238 398.849 210.554 397.298 213.605 395.3C214.135 394.95 214.6 394.558 215 394.126ZM215 390.159C215 390.87 214.772 391.549 214.316 392.197C213.861 392.844 213.293 393.398 212.614 393.857C209.117 396.205 206.941 397.666 206.085 398.242C205.992 398.305 205.795 398.442 205.492 398.654C205.19 398.865 204.939 399.036 204.739 399.167C204.539 399.297 204.297 399.443 204.014 399.605C203.73 399.767 203.463 399.888 203.211 399.969C202.96 400.05 202.728 400.091 202.514 400.091H202.486C202.272 400.091 202.04 400.05 201.789 399.969C201.537 399.888 201.27 399.767 200.986 399.605C200.703 399.443 200.461 399.297 200.261 399.167C200.061 399.036 199.81 398.865 199.508 398.654C199.205 398.442 199.008 398.305 198.915 398.242C198.068 397.666 196.85 396.846 195.259 395.779C193.669 394.713 192.716 394.072 192.4 393.857C191.823 393.479 191.279 392.959 190.767 392.298C190.256 391.637 190 391.023 190 390.456C190 389.754 190.193 389.17 190.579 388.702C190.965 388.234 191.516 388 192.232 388H212.768C213.372 388 213.896 388.211 214.337 388.634C214.779 389.057 215 389.565 215 390.159Z" fill="url(#paint13_linear_190_142)"/>
    <circle cx="518.5" cy="219.5" r="25.5" fill="url(#paint14_linear_190_142)"/>
    <path d="M519.615 220.635C521.479 220.635 522.99 222.162 522.99 224.044L522.988 225.745C523.22 229.919 520.037 232 514.135 232C508.252 232 505 229.946 505 225.804V224.044C505 222.162 506.511 220.635 508.375 220.635H519.615ZM528.616 220.635C530.48 220.635 531.991 222.162 531.991 224.044L531.99 225.241C532.193 228.985 529.381 230.862 524.241 230.862C523.543 230.862 522.887 230.828 522.274 230.759C523.482 229.633 524.128 228.104 524.126 226.173L524.112 225.681L524.115 224.044C524.115 222.686 523.526 221.467 522.591 220.634L528.616 220.635ZM514 207C517.107 207 519.626 209.544 519.626 212.682C519.626 215.821 517.107 218.365 514 218.365C510.893 218.365 508.374 215.821 508.374 212.682C508.374 209.544 510.893 207 514 207ZM525.25 209.273C527.735 209.273 529.75 211.307 529.75 213.818C529.75 216.328 527.735 218.363 525.25 218.363C522.764 218.363 520.75 216.328 520.75 213.818C520.75 211.307 522.764 209.273 525.25 209.273Z" fill="url(#paint15_linear_190_142)"/>
    <path d="M309.743 100.272C310.986 100.272 311.993 101.31 311.993 102.59L311.992 103.747C312.147 106.585 310.025 108 306.09 108C302.168 108 300 106.603 300 103.787V102.59C300 101.31 301.007 100.272 302.25 100.272H309.743ZM315.744 100.272C316.987 100.272 317.994 101.31 317.994 102.59L317.993 103.404C318.129 105.95 316.254 107.226 312.827 107.226C312.362 107.226 311.925 107.203 311.516 107.156C312.321 106.39 312.752 105.351 312.75 104.037L312.741 103.703L312.743 102.59C312.743 101.667 312.35 100.838 311.727 100.271L315.744 100.272ZM306 91C308.071 91 309.75 92.73 309.75 94.864C309.75 96.998 308.071 98.728 306 98.728C303.929 98.728 302.249 96.998 302.249 94.864C302.249 92.73 303.929 91 306 91ZM313.5 92.5453C315.157 92.5453 316.5 93.9291 316.5 95.636C316.5 97.343 315.157 98.7267 313.5 98.7267C311.843 98.7267 310.5 97.343 310.5 95.636C310.5 93.9291 311.843 92.5453 313.5 92.5453Z" fill="url(#paint16_linear_190_142)"/>
    <path d="M280 251.837V260.295C280 260.764 279.825 261.165 279.475 261.499C279.126 261.833 278.705 262 278.214 262H261.786C261.295 262 260.874 261.833 260.525 261.499C260.175 261.165 260 260.764 260 260.295V251.837C260.327 252.185 260.703 252.494 261.127 252.763C263.821 254.511 265.67 255.736 266.674 256.439C267.098 256.737 267.442 256.97 267.706 257.137C267.971 257.304 268.322 257.474 268.761 257.648C269.2 257.822 269.609 257.909 269.989 257.909H270.011C270.391 257.909 270.8 257.822 271.239 257.648C271.678 257.474 272.029 257.304 272.294 257.137C272.558 256.97 272.902 256.737 273.326 256.439C274.591 255.565 276.443 254.34 278.884 252.763C279.308 252.487 279.68 252.178 280 251.837ZM280 248.705C280 249.266 279.818 249.802 279.453 250.313C279.089 250.825 278.635 251.261 278.092 251.624C275.294 253.477 273.553 254.631 272.868 255.086C272.794 255.136 272.636 255.244 272.394 255.411C272.152 255.578 271.951 255.713 271.791 255.816C271.631 255.919 271.438 256.034 271.211 256.162C270.984 256.29 270.77 256.386 270.569 256.45C270.368 256.513 270.182 256.545 270.011 256.545H269.989C269.818 256.545 269.632 256.513 269.431 256.45C269.23 256.386 269.016 256.29 268.789 256.162C268.562 256.034 268.369 255.919 268.209 255.816C268.049 255.713 267.848 255.578 267.606 255.411C267.364 255.244 267.206 255.136 267.132 255.086C266.455 254.631 265.48 253.983 264.208 253.142C262.935 252.3 262.173 251.794 261.92 251.624C261.458 251.325 261.023 250.915 260.614 250.393C260.205 249.871 260 249.386 260 248.939C260 248.385 260.154 247.923 260.463 247.554C260.772 247.185 261.213 247 261.786 247H278.214C278.698 247 279.116 247.167 279.47 247.501C279.823 247.835 280 248.236 280 248.705Z" fill="url(#paint17_linear_190_142)"/>
    <defs>
        <linearGradient id="paint0_linear_190_142" x1="46" y1="211.509" x2="461" y2="211.509" gradientUnits="userSpaceOnUse">
            <stop stop-color="#283487"/>
            <stop offset="1" stop-color="#55178C"/>
        </linearGradient>
        <linearGradient id="paint00_linear_190_142" x1="46" y1="211.509" x2="461" y2="211.509" gradientUnits="userSpaceOnUse">
            <stop stop-color="#DEEBFF"/>
            <stop offset="1" stop-color="#F2E7FF"/>
        </linearGradient>
        <linearGradient id="paint1_linear_190_142" x1="393" y1="27" x2="419" y2="27" gradientUnits="userSpaceOnUse">
            <stop stop-color="#DEEBFF"/>
            <stop offset="1" stop-color="#F2E7FF"/>
        </linearGradient>
        <linearGradient id="paint2_linear_190_142" x1="277" y1="7.56432" x2="292" y2="7.56432" gradientUnits="userSpaceOnUse">
            <stop stop-color="#9FBFFF"/>
            <stop offset="1" stop-color="#D6B0FF"/>
        </linearGradient>
        <linearGradient id="paint3_linear_190_142" x1="427" y1="356" x2="441" y2="356" gradientUnits="userSpaceOnUse">
            <stop stop-color="#DEEBFF"/>
            <stop offset="1" stop-color="#F2E7FF"/>
        </linearGradient>
        <linearGradient id="paint4_linear_190_142" x1="147" y1="342" x2="161" y2="342" gradientUnits="userSpaceOnUse">
            <stop stop-color="#DEEBFF"/>
            <stop offset="1" stop-color="#F2E7FF"/>
        </linearGradient>
        <linearGradient id="paint5_linear_190_142" x1="14" y1="194" x2="28" y2="194" gradientUnits="userSpaceOnUse">
            <stop stop-color="#DEEBFF"/>
            <stop offset="1" stop-color="#F2E7FF"/>
        </linearGradient>
        <linearGradient id="paint6_linear_190_142" x1="65" y1="329.194" x2="91.003" y2="329.194" gradientUnits="userSpaceOnUse">
            <stop stop-color="#9FBFFF"/>
            <stop offset="1" stop-color="#D6B0FF"/>
        </linearGradient>
        <linearGradient id="paint7_linear_190_142" x1="511" y1="108.049" x2="527" y2="108.049" gradientUnits="userSpaceOnUse">
            <stop stop-color="#DEEBFF"/>
            <stop offset="1" stop-color="#F2E7FF"/>
        </linearGradient>
        <linearGradient id="paint8_linear_190_142" x1="446" y1="296.049" x2="469.951" y2="296.049" gradientUnits="userSpaceOnUse">
            <stop stop-color="#283487"/>
            <stop offset="1" stop-color="#55178C"/>
        </linearGradient>
        <linearGradient id="paint9_linear_190_142" x1="0" y1="54.7358" x2="55" y2="54.7358" gradientUnits="userSpaceOnUse">
            <stop stop-color="#283487"/>
            <stop offset="1" stop-color="#55178C"/>
        </linearGradient>
        <linearGradient id="paint10_linear_190_142" x1="10" y1="55" x2="46" y2="55" gradientUnits="userSpaceOnUse">
            <stop stop-color="#DEEBFF"/>
            <stop offset="1" stop-color="#F2E7FF"/>
        </linearGradient>
        <linearGradient id="paint11_linear_190_142" x1="124" y1="219.5" x2="149" y2="219.5" gradientUnits="userSpaceOnUse">
            <stop stop-color="#DEEBFF"/>
            <stop offset="1" stop-color="#F2E7FF"/>
        </linearGradient>
        <linearGradient id="paint12_linear_190_142" x1="178" y1="397.206" x2="226" y2="397.206" gradientUnits="userSpaceOnUse">
            <stop stop-color="#283487"/>
            <stop offset="1" stop-color="#55178C"/>
        </linearGradient>
        <linearGradient id="paint13_linear_190_142" x1="190" y1="397.5" x2="215" y2="397.5" gradientUnits="userSpaceOnUse">
            <stop stop-color="#DEEBFF"/>
            <stop offset="1" stop-color="#F2E7FF"/>
        </linearGradient>
        <linearGradient id="paint14_linear_190_142" x1="493" y1="219.5" x2="544" y2="219.5" gradientUnits="userSpaceOnUse">
            <stop stop-color="#DEEBFF"/>
            <stop offset="1" stop-color="#F2E7FF"/>
        </linearGradient>
        <linearGradient id="paint15_linear_190_142" x1="505" y1="219.607" x2="532" y2="219.607" gradientUnits="userSpaceOnUse">
            <stop stop-color="#283487"/>
            <stop offset="1" stop-color="#55178C"/>
        </linearGradient>
        <linearGradient id="paint16_linear_190_142" x1="300" y1="99.5" x2="318" y2="99.5" gradientUnits="userSpaceOnUse">
            <stop stop-color="#DEEBFF"/>
            <stop offset="1" stop-color="#F2E7FF"/>
        </linearGradient>
        <linearGradient id="paint17_linear_190_142" x1="260" y1="254.5" x2="280" y2="254.5" gradientUnits="userSpaceOnUse">
            <stop stop-color="#DEEBFF"/>
            <stop offset="1" stop-color="#F2E7FF"/>
        </linearGradient>
    </defs>
</svg>
