<?xml version="1.0" encoding="UTF-8" standalone="no"?>
<svg xmlns:inkscape="http://www.inkscape.org/namespaces/inkscape" xmlns:sodipodi="http://sodipodi.sourceforge.net/DTD/sodipodi-0.dtd" xmlns="http://www.w3.org/2000/svg" xmlns:svg="http://www.w3.org/2000/svg" width="433" height="91.007698" viewBox="0 0 433 91.007698" fill="none" version="1.1" id="svg116" sodipodi:docname="0edb01c6933bcd8f0ece7fd255220d19.svg"><metadata><meta name="Producer" content="Online-Convert"/></metadata>
  <sodipodi:namedview id="namedview118" pagecolor="#ffffff" bordercolor="#666666" borderopacity="1.0" inkscape:pageshadow="2" inkscape:pageopacity="0.0" inkscape:pagecheckerboard="0"/>
  <path d="M 150.908,55.65 H 134.174 V 29.2777 h 38.438 c 5.131,0 9.468,-4.2045 9.38,-9.3429 -0.084,-4.9923 -4.168,-9.0277 -9.173,-9.0277 h -32.888 v 6.4028 h 33.767 c 1.589,0 2.879,1.2913 2.879,2.8824 0,1.5911 -1.29,2.8825 -2.879,2.8825 H 134.174 V 5.14224 h 38.365 c 8.152,0 15.014,6.42976 15.206,14.59276 0.192,8.163 -6.574,15.3114 -14.926,15.3114 H 139.931 V 49.889 h 5.22 V 38.6398 h 5.757 v 17.014 z" fill="url(#paint0_linear_3_48)" id="path2" style="fill:url(#paint0_linear_3_48)"/>
  <path d="M 250.616,55.65 H 230.232 L 221.904,44.7583 H 210.486 V 55.65 H 193.752 V 29.2777 h 38.438 c 5.131,0 9.468,-4.2045 9.38,-9.3429 -0.084,-4.9923 -4.168,-9.0277 -9.173,-9.0277 h -32.888 v 6.4028 h 33.675 c 1.589,0 2.878,1.2913 2.878,2.8824 0,1.5911 -1.289,2.8825 -2.878,2.8825 H 193.752 V 5.14224 h 38.365 c 8.152,0 15.014,6.42976 15.206,14.59276 0.2,8.409 -6.574,15.3114 -14.926,15.3114 H 199.509 V 49.889 h 5.22 V 38.9973 h 20.019 l 8.329,10.8917 h 5.964 l -8.206,-10.8533 h 7.219 l 12.562,16.6181 z" fill="url(#paint1_linear_3_48)" id="path4" style="fill:url(#paint1_linear_3_48)"/>
  <path d="m 318.204,55.65 h -18.1 L 290.67,39.0318 h 6.621 l 6.164,10.8533 h 4.943 L 293.936,23.9433 276.224,55.65 H 256.703 L 284.721,5.27675 h 6.59 L 266.498,49.8851 h 6.352 l 21.09,-37.7636 z" fill="url(#paint2_linear_3_48)" id="path6" style="fill:url(#paint2_linear_3_48)"/>
  <path d="m 345.865,56.2418 c -14.934,0 -27.081,-12.1638 -27.081,-27.1178 V 5.14224 h 17.125 V 28.4361 c 0,5.5534 4.51,10.0692 10.056,10.0692 5.546,0 10.055,-4.5158 10.055,-10.0692 V 6.25678 h 5.757 V 28.4322 c 0,8.7318 -7.092,15.8341 -15.812,15.8341 -8.72,0 -15.813,-7.1023 -15.813,-15.8341 V 10.9071 h -5.611 v 18.2131 c 0,11.7756 9.568,21.3529 21.324,21.3529 11.756,0 21.324,-9.5811 21.324,-21.3529 V 6.25678 h 5.757 V 29.1202 c 0,14.954 -12.147,27.1178 -27.081,27.1178 z" fill="url(#paint3_linear_3_48)" id="path8" style="fill:url(#paint3_linear_3_48)"/>
  <path d="M 415.065,55.65 H 397.943 V 23.0748 H 380.891 V 6.17223 H 433 V 23.0748 h -11.994 v -5.7649 h 6.237 v -5.3728 h -40.595 v 5.3728 H 403.7 v 32.5752 h 5.608 V 18.3284 h 5.757 z" fill="url(#paint4_linear_3_48)" id="path10" style="fill:url(#paint4_linear_3_48)"/>
  <path d="M 100.745,13.924 61.7387,0 33.8093,2.16758 13.5253,13.4129 7.5571,19.3891 2.40645,27.3254 0,36.1609 v 7.2099 l 15.7513,19.0087 20.6986,-0.369 16.8873,16.7142 5.001,-4.1737 -0.0614,2.2137 18.6912,14.243 h 10.3244 l -6.4095,-13.3706 -2.7596,-3.1899 9.338,-4.8156 10.8693,-9.3275 8.7964,-15.6189 -6.382,-30.7535 z M 35.3944,7.45587 61.0133,5.46892 96.0892,17.9902 97.421,24.416 H 77.4286 l -6.6014,7.2061 H 49.6988 L 45.8454,25.177 50.689,19.5697 h 12.9841 c 0.8559,1.422 2.4064,2.3751 4.1834,2.3751 2.6982,0 4.8859,-2.1906 4.8859,-4.8924 0,-2.7018 -2.1877,-4.8924 -4.8859,-4.8924 -1.6234,0 -3.0589,0.7955 -3.9455,2.0177 H 48.2288 l -5.2926,6.1261 -1.8538,-3.0977 H 17.8085 L 35.3982,7.45587 Z m 58.7067,49.36243 -9.6681,8.3014 -14.8685,7.6711 6.7741,7.8286 2.3604,4.9271 -14.9645,-11.4029 0.307,-11.376 -10.4011,8.678 -15.022,-14.8694 -20.38,0.3651 -0.9404,-1.1376 1.6466,-5.0154 h 0.3991 c 0.8789,1.2875 2.3566,2.133 4.0338,2.133 2.6981,0 4.8858,-2.1907 4.8858,-4.8925 0,-2.7017 -2.1877,-4.8924 -4.8858,-4.8924 -1.7271,0 -3.2431,0.8993 -4.1105,2.256 H 15.0451 L 13.2374,50.8997 5.38477,41.4223 V 37.0141 H 31.6984 l 8.2518,12.3022 h 2.51 l 6.3251,10.346 h 4.7515 c 0.8751,1.3221 2.3719,2.1945 4.076,2.1945 2.6982,0 4.8858,-2.1907 4.8858,-4.8924 0,-2.7018 -2.1876,-4.8925 -4.8858,-4.8925 -1.7041,0 -3.2009,0.8724 -4.076,2.1945 H 51.802 l -3.0282,-4.9501 h 19.171 l 4.218,6.7949 h 22.3374 z m 3.4388,-6.103 H 75.1565 l -4.218,-6.7949 H 42.821 L 34.5692,31.6183 H 6.8202 l 0.56035,-2.0639 4.38305,-6.7525 0.2034,-0.2037 h 26.0565 l 8.6202,14.4159 h 26.5516 l 6.6014,-7.206 h 18.745 l 1.6353,7.8748 H 87.5342 c -0.8904,-1.1914 -2.3067,-1.9639 -3.9071,-1.9639 -2.6982,0 -4.8859,2.1906 -4.8859,4.8924 0,2.7018 2.1877,4.8924 4.8859,4.8924 1.8,0 3.3659,-0.9761 4.2141,-2.425 h 13.4528 l 0.149,0.7148 -3.9031,6.9255 z" fill="url(#paint5_linear_3_48)" id="path12" style="fill:url(#paint5_linear_3_48)"/>
  <path d="m 134.784,90.7771 4.752,-12.9133 h 1.328 l 4.751,12.9133 h -1.362 L 140.2,79.5625 136.147,90.7771 Z m 2.173,-3.4858 0.387,-1.0684 h 5.692 l 0.388,1.0684 z" fill="url(#paint6_linear_3_48)" id="path14" style="fill:url(#paint6_linear_3_48)"/>
  <path d="m 171.902,91 c -0.871,0 -1.662,-0.1729 -2.368,-0.515 -0.706,-0.3459 -1.267,-0.8839 -1.685,-1.6142 -0.418,-0.7302 -0.626,-1.6641 -0.626,-2.794 v -8.2091 h 1.29 v 8.2283 c 0,0.8725 0.146,1.5911 0.434,2.1484 0.288,0.5611 0.691,0.9685 1.205,1.226 0.514,0.2575 1.105,0.3882 1.769,0.3882 0.664,0 1.267,-0.1307 1.769,-0.3882 0.503,-0.2575 0.899,-0.6687 1.179,-1.226 0.284,-0.5611 0.422,-1.2759 0.422,-2.1484 v -8.2283 h 1.29 v 8.2091 c 0,1.1299 -0.208,2.0638 -0.626,2.794 -0.418,0.7303 -0.979,1.2683 -1.685,1.6142 -0.706,0.3459 -1.497,0.515 -2.368,0.515 z" fill="url(#paint7_linear_3_48)" id="path16" style="fill:url(#paint7_linear_3_48)"/>
  <path d="M 202.576,90.7771 V 78.9323 h -3.869 v -1.0685 h 9.027 v 1.0685 h -3.869 v 11.8448 z" fill="url(#paint8_linear_3_48)" id="path18" style="fill:url(#paint8_linear_3_48)"/>
  <path d="m 234.946,91 c -1.229,0 -2.311,-0.2806 -3.244,-0.8378 -0.932,-0.5611 -1.661,-1.3413 -2.183,-2.3444 -0.522,-1.0031 -0.783,-2.1676 -0.783,-3.4973 0,-1.3298 0.261,-2.4751 0.783,-3.4782 0.522,-1.003 1.251,-1.7871 2.183,-2.352 0.933,-0.565 2.015,-0.8494 3.244,-0.8494 1.228,0 2.364,0.2844 3.296,0.8494 0.933,0.5649 1.659,1.349 2.173,2.352 0.514,1.0031 0.775,2.1599 0.775,3.4782 0,1.3182 -0.257,2.4942 -0.775,3.4973 -0.514,1.0031 -1.24,1.7833 -2.173,2.3444 C 237.31,90.7233 236.208,91 234.946,91 Z m 0.019,-1.1261 c 0.971,0 1.823,-0.2229 2.56,-0.6648 0.737,-0.442 1.312,-1.08 1.723,-1.9101 0.411,-0.8302 0.618,-1.8217 0.618,-2.9785 0,-1.1568 -0.207,-2.1446 -0.618,-2.9709 -0.411,-0.8224 -0.986,-1.4565 -1.723,-1.8985 -0.737,-0.442 -1.589,-0.6649 -2.56,-0.6649 -0.971,0 -1.823,0.2229 -2.56,0.6649 -0.737,0.442 -1.313,1.0761 -1.723,1.8985 -0.411,0.8225 -0.618,1.8141 -0.618,2.9709 0,1.1568 0.207,2.1483 0.618,2.9785 0.41,0.8301 0.986,1.4681 1.723,1.9101 0.737,0.4419 1.589,0.6648 2.56,0.6648 z" fill="url(#paint9_linear_3_48)" id="path20" style="fill:url(#paint9_linear_3_48)"/>
  <path d="M 263.796,90.7771 V 77.8638 h 1.474 l 4.751,9.316 4.737,-9.316 h 1.493 v 12.9133 h -1.29 V 80.2236 l -4.46,8.7433 h -0.959 l -4.46,-8.7087 v 10.5151 h -1.29 z" fill="url(#paint10_linear_3_48)" id="path22" style="fill:url(#paint10_linear_3_48)"/>
  <path d="m 298.557,90.7771 4.752,-12.9133 h 1.328 l 4.751,12.9133 h -1.362 l -4.053,-11.2146 -4.053,11.2146 z m 2.176,-3.4858 0.388,-1.0684 h 5.692 l 0.388,1.0684 z" fill="url(#paint11_linear_3_48)" id="path24" style="fill:url(#paint11_linear_3_48)"/>
  <path d="M 333.23,90.7771 V 78.9323 h -3.869 v -1.0685 h 9.027 v 1.0685 h -3.868 v 11.8448 z" fill="url(#paint12_linear_3_48)" id="path26" style="fill:url(#paint12_linear_3_48)"/>
  <path d="M 360.661,90.7771 V 77.8638 h 1.289 v 12.9133 z" fill="url(#paint13_linear_3_48)" id="path28" style="fill:url(#paint13_linear_3_48)"/>
  <path d="m 390.762,91 c -1.228,0 -2.31,-0.2806 -3.243,-0.8378 -0.932,-0.5611 -1.662,-1.3413 -2.184,-2.3444 -0.522,-1.0031 -0.783,-2.1676 -0.783,-3.4973 0,-1.3298 0.261,-2.4751 0.783,-3.4782 0.522,-1.003 1.252,-1.7871 2.184,-2.352 0.933,-0.565 2.015,-0.8494 3.243,-0.8494 1.229,0 2.365,0.2844 3.297,0.8494 0.933,0.5649 1.658,1.349 2.173,2.352 0.514,1.0031 0.775,2.1599 0.775,3.4782 0,1.3182 -0.257,2.4942 -0.775,3.4973 -0.515,1.0031 -1.24,1.7833 -2.173,2.3444 C 393.127,90.7233 392.025,91 390.762,91 Z m 0.02,-1.1261 c 0.971,0 1.823,-0.2229 2.56,-0.6648 0.736,-0.442 1.312,-1.08 1.723,-1.9101 0.41,-0.8302 0.618,-1.8217 0.618,-2.9785 0,-1.1568 -0.208,-2.1446 -0.618,-2.9709 -0.411,-0.8224 -0.987,-1.4565 -1.723,-1.8985 -0.737,-0.442 -1.589,-0.6649 -2.56,-0.6649 -0.971,0 -1.824,0.2229 -2.56,0.6649 -0.737,0.442 -1.313,1.0761 -1.724,1.8985 -0.41,0.8225 -0.618,1.8141 -0.618,2.9709 0,1.1568 0.208,2.1483 0.618,2.9785 0.411,0.8301 0.987,1.4681 1.724,1.9101 0.736,0.4419 1.589,0.6648 2.56,0.6648 z" fill="url(#paint14_linear_3_48)" id="path30" style="fill:url(#paint14_linear_3_48)"/>
  <path d="M 419.613,90.7771 V 77.8638 h 1.289 l 7.132,10.7534 V 77.8638 h 1.289 v 12.9133 h -1.289 l -7.132,-10.7726 v 10.7726 z" fill="url(#paint15_linear_3_48)" id="path32" style="fill:url(#paint15_linear_3_48)"/>
  <defs id="defs114">
    <linearGradient id="paint0_linear_3_48" x1="0" y1="45.503799" x2="433" y2="45.503799" gradientUnits="userSpaceOnUse">
      <stop stop-color="#3B4EF0" id="stop34"/>
      <stop offset="1" stop-color="#55178C" id="stop36"/>
    </linearGradient>
    <linearGradient id="paint1_linear_3_48" x1="0" y1="45.503799" x2="433" y2="45.503799" gradientUnits="userSpaceOnUse">
      <stop stop-color="#3B4EF0" id="stop39"/>
      <stop offset="1" stop-color="#55178C" id="stop41"/>
    </linearGradient>
    <linearGradient id="paint2_linear_3_48" x1="0" y1="45.503799" x2="433" y2="45.503799" gradientUnits="userSpaceOnUse">
      <stop stop-color="#3B4EF0" id="stop44"/>
      <stop offset="1" stop-color="#55178C" id="stop46"/>
    </linearGradient>
    <linearGradient id="paint3_linear_3_48" x1="0" y1="45.503799" x2="433" y2="45.503799" gradientUnits="userSpaceOnUse">
      <stop stop-color="#3B4EF0" id="stop49"/>
      <stop offset="1" stop-color="#55178C" id="stop51"/>
    </linearGradient>
    <linearGradient id="paint4_linear_3_48" x1="0" y1="45.503799" x2="433" y2="45.503799" gradientUnits="userSpaceOnUse">
      <stop stop-color="#3B4EF0" id="stop54"/>
      <stop offset="1" stop-color="#55178C" id="stop56"/>
    </linearGradient>
    <linearGradient id="paint5_linear_3_48" x1="0" y1="45.503799" x2="433" y2="45.503799" gradientUnits="userSpaceOnUse">
      <stop stop-color="#3B4EF0" id="stop59"/>
      <stop offset="1" stop-color="#55178C" id="stop61"/>
    </linearGradient>
    <linearGradient id="paint6_linear_3_48" x1="0" y1="45.503799" x2="433" y2="45.503799" gradientUnits="userSpaceOnUse">
      <stop stop-color="#3B4EF0" id="stop64"/>
      <stop offset="1" stop-color="#55178C" id="stop66"/>
    </linearGradient>
    <linearGradient id="paint7_linear_3_48" x1="0" y1="45.503799" x2="433" y2="45.503799" gradientUnits="userSpaceOnUse">
      <stop stop-color="#3B4EF0" id="stop69"/>
      <stop offset="1" stop-color="#55178C" id="stop71"/>
    </linearGradient>
    <linearGradient id="paint8_linear_3_48" x1="0" y1="45.503799" x2="433" y2="45.503799" gradientUnits="userSpaceOnUse">
      <stop stop-color="#3B4EF0" id="stop74"/>
      <stop offset="1" stop-color="#55178C" id="stop76"/>
    </linearGradient>
    <linearGradient id="paint9_linear_3_48" x1="0" y1="45.503799" x2="433" y2="45.503799" gradientUnits="userSpaceOnUse">
      <stop stop-color="#3B4EF0" id="stop79"/>
      <stop offset="1" stop-color="#55178C" id="stop81"/>
    </linearGradient>
    <linearGradient id="paint10_linear_3_48" x1="0" y1="45.503799" x2="433" y2="45.503799" gradientUnits="userSpaceOnUse">
      <stop stop-color="#3B4EF0" id="stop84"/>
      <stop offset="1" stop-color="#55178C" id="stop86"/>
    </linearGradient>
    <linearGradient id="paint11_linear_3_48" x1="0" y1="45.503799" x2="433" y2="45.503799" gradientUnits="userSpaceOnUse">
      <stop stop-color="#3B4EF0" id="stop89"/>
      <stop offset="1" stop-color="#55178C" id="stop91"/>
    </linearGradient>
    <linearGradient id="paint12_linear_3_48" x1="0" y1="45.503799" x2="433" y2="45.503799" gradientUnits="userSpaceOnUse">
      <stop stop-color="#3B4EF0" id="stop94"/>
      <stop offset="1" stop-color="#55178C" id="stop96"/>
    </linearGradient>
    <linearGradient id="paint13_linear_3_48" x1="0" y1="45.503799" x2="433" y2="45.503799" gradientUnits="userSpaceOnUse">
      <stop stop-color="#3B4EF0" id="stop99"/>
      <stop offset="1" stop-color="#55178C" id="stop101"/>
    </linearGradient>
    <linearGradient id="paint14_linear_3_48" x1="0" y1="45.503799" x2="433" y2="45.503799" gradientUnits="userSpaceOnUse">
      <stop stop-color="#3B4EF0" id="stop104"/>
      <stop offset="1" stop-color="#55178C" id="stop106"/>
    </linearGradient>
    <linearGradient id="paint15_linear_3_48" x1="0" y1="45.503799" x2="433" y2="45.503799" gradientUnits="userSpaceOnUse">
      <stop stop-color="#3B4EF0" id="stop109"/>
      <stop offset="1" stop-color="#55178C" id="stop111"/>
    </linearGradient>
  </defs>
</svg>
